<svg width="201" height="59" viewBox="0 0 201 59" fill="none" xmlns="http://www.w3.org/2000/svg">
<path d="M41.66 13.83C37.13 5.07999 28.09 1.20999 16.31 1.20999H0.109985V57.57H17.08C28.06 57.57 36.77 53.61 41.34 45.14C39.19 40.95 37.95 35.79 37.95 29.69C37.94 23.49 39.32 18.18 41.66 13.83ZM15.48 46.65H13.66V11.96H15.48C24.57 11.96 31.01 15.67 31.01 29.08C31.01 42.49 24.57 46.65 15.48 46.65Z" fill="#004471"/>
<path d="M75.66 41.81C73.01 44.69 69.37 46.96 64.9 46.96C56.95 46.96 51.8 40.45 51.8 29.24C51.8 18.26 57.78 11.74 65.06 11.74C69.07 11.74 72.03 13.56 74.83 16.13L81.95 7.48999C78.09 3.54999 72.18 0.140015 64.83 0.140015C55.23 0.140015 46.43 4.98001 41.66 13.82C43.74 17.84 44.87 22.89 44.87 29.07C44.87 35.59 43.61 40.91 41.33 45.12C45.91 54.05 54.63 58.61 64.37 58.61C71.72 58.61 78 55.81 82.78 50.28L75.66 41.81Z" fill="#86C7DB"/>
<path d="M41.66 13.83C39.31 18.18 37.94 23.49 37.94 29.69C37.94 35.79 39.18 40.94 41.33 45.14C43.61 40.93 44.87 35.61 44.87 29.09C44.87 22.9 43.74 17.85 41.66 13.83Z" fill="black"/>
<path d="M41.66 13.83C39.31 18.18 37.94 23.49 37.94 29.69C37.94 35.79 39.18 40.94 41.33 45.14C43.61 40.93 44.87 35.61 44.87 29.09C44.87 22.9 43.74 17.85 41.66 13.83Z" fill="#3D8BAA"/>
<path d="M96.66 7.82999H101.58C107.05 7.82999 110.44 10.66 110.44 16.72C110.44 22.75 107.05 25.75 101.77 25.75H96.66V7.82999ZM101.36 22.86C104.7 22.86 106.78 21.07 106.78 16.71C106.78 12.33 104.7 10.68 101.36 10.68H100.25V22.86H101.36Z" fill="#004471"/>
<path d="M113.32 8.07001C113.32 6.91001 114.22 6.13 115.45 6.13C116.66 6.13 117.56 6.91001 117.56 8.07001C117.56 9.18001 116.66 10.01 115.45 10.01C114.22 10.01 113.32 9.18001 113.32 8.07001ZM113.66 12.19H117.2V25.75H113.66V12.19Z" fill="#004471"/>
<path d="M120.13 28.14C120.13 27 120.83 26.03 122.07 25.33V25.21C121.37 24.75 120.84 24.05 120.84 22.93C120.84 21.91 121.54 20.97 122.34 20.39V20.29C121.42 19.61 120.55 18.33 120.55 16.75C120.55 13.55 123.14 11.83 126.02 11.83C126.77 11.83 127.5 11.98 128.05 12.17H132.94V14.79H130.62C130.98 15.25 131.25 16 131.25 16.85C131.25 19.9 128.93 21.45 126.02 21.45C125.49 21.45 124.86 21.33 124.28 21.13C123.89 21.45 123.7 21.76 123.7 22.29C123.7 23.02 124.23 23.4 125.83 23.4H128.13C131.4 23.4 133.17 24.42 133.17 26.79C133.17 29.53 130.34 31.61 125.81 31.61C122.6 31.63 120.13 30.54 120.13 28.14ZM129.77 27.42C129.77 26.45 128.97 26.21 127.52 26.21H125.87C125.05 26.21 124.47 26.14 123.98 26.02C123.37 26.5 123.08 27.04 123.08 27.59C123.08 28.73 124.34 29.38 126.32 29.38C128.36 29.38 129.77 28.48 129.77 27.42ZM128.12 16.76C128.12 15.16 127.22 14.27 126.01 14.27C124.8 14.27 123.88 15.17 123.88 16.76C123.88 18.36 124.82 19.25 126.01 19.25C127.2 19.26 128.12 18.36 128.12 16.76Z" fill="#004471"/>
<path d="M135.14 8.07001C135.14 6.91001 136.04 6.13 137.27 6.13C138.48 6.13 139.38 6.91001 139.38 8.07001C139.38 9.18001 138.48 10.01 137.27 10.01C136.04 10.01 135.14 9.18001 135.14 8.07001ZM135.48 12.19H139.02V25.75H135.48V12.19Z" fill="#004471"/>
<path d="M142.24 16.86C142.24 10.95 146.04 7.48999 150.57 7.48999C152.85 7.48999 154.66 8.58001 155.82 9.79001L153.93 12.07C153.03 11.2 151.99 10.57 150.64 10.57C147.93 10.57 145.89 12.89 145.89 16.75C145.89 20.65 147.73 23 150.56 23C152.09 23 153.3 22.27 154.27 21.23L156.16 23.46C154.68 25.18 152.77 26.1 150.44 26.1C145.92 26.08 142.24 22.84 142.24 16.86Z" fill="#004471"/>
<path d="M157.9 18.99C157.9 14.46 161.02 11.85 164.41 11.85C167.8 11.85 170.92 14.47 170.92 18.99C170.92 23.47 167.8 26.08 164.41 26.08C161.03 26.08 157.9 23.47 157.9 18.99ZM167.3 18.99C167.3 16.42 166.26 14.75 164.42 14.75C162.58 14.75 161.54 16.42 161.54 18.99C161.54 21.53 162.58 23.18 164.42 23.18C166.26 23.18 167.3 21.53 167.3 18.99Z" fill="#004471"/>
<path d="M173.13 18.99C173.13 14.56 175.89 11.85 178.82 11.85C180.35 11.85 181.29 12.43 182.26 13.33L182.12 11.2V6.42999H185.68V25.75H182.8L182.51 24.35H182.44C181.45 25.32 180.09 26.09 178.69 26.09C175.31 26.08 173.13 23.42 173.13 18.99ZM182.12 21.75V15.79C181.3 15.04 180.45 14.77 179.6 14.77C178.07 14.77 176.79 16.22 176.79 18.94C176.79 21.75 177.81 23.15 179.6 23.15C180.54 23.16 181.34 22.77 182.12 21.75Z" fill="#004471"/>
<path d="M188.65 18.99C188.65 14.58 191.72 11.85 194.97 11.85C198.7 11.85 200.64 14.59 200.64 18.34C200.64 18.99 200.57 19.65 200.47 19.96H192.12C192.41 22.19 193.86 23.35 195.87 23.35C196.98 23.35 197.95 23.01 198.92 22.41L200.13 24.59C198.8 25.51 197.08 26.09 195.38 26.09C191.61 26.08 188.65 23.45 188.65 18.99ZM197.59 17.61C197.59 15.77 196.77 14.61 195.02 14.61C193.59 14.61 192.33 15.63 192.07 17.61H197.59Z" fill="#004471"/>
<path d="M101.7 35.31H96.66V32.34H110.37V35.31H105.29V50.25H101.7V35.31Z" fill="#004471"/>
<path d="M108.48 43.5C108.48 39.09 111.56 36.36 114.8 36.36C118.53 36.36 120.47 39.1 120.47 42.85C120.47 43.5 120.4 44.16 120.3 44.47H111.95C112.24 46.7 113.69 47.86 115.7 47.86C116.81 47.86 117.78 47.52 118.75 46.92L119.96 49.1C118.63 50.02 116.91 50.6 115.21 50.6C111.44 50.59 108.48 47.95 108.48 43.5ZM117.42 42.12C117.42 40.28 116.6 39.12 114.85 39.12C113.42 39.12 112.16 40.14 111.9 42.12H117.42Z" fill="#004471"/>
<path d="M122.55 43.5C122.55 38.97 125.79 36.36 129.48 36.36C131.15 36.36 132.44 37.01 133.43 37.86L131.74 40.16C131.06 39.58 130.43 39.26 129.66 39.26C127.6 39.26 126.2 40.93 126.2 43.5C126.2 46.04 127.6 47.69 129.57 47.69C130.54 47.69 131.46 47.23 132.21 46.6L133.62 48.95C132.34 50.09 130.69 50.6 129.19 50.6C125.41 50.59 122.55 47.98 122.55 43.5Z" fill="#004471"/>
<path d="M135.48 30.93H139.02V35.8L138.87 38.34C139.96 37.32 141.29 36.35 143.13 36.35C146.06 36.35 147.32 38.38 147.32 41.8V50.25H143.76V42.24C143.76 40.16 143.18 39.41 141.85 39.41C140.74 39.41 140.03 39.94 139.02 40.94V50.26H135.48V30.93Z" fill="#004471"/>
</svg>
